# xmcd
#
# Track frame offsets: 
#        150
#        17767
#        50242
#        74225
#        95580
#        116927
#        137225
#        159535
#        179757
#        200590
#        221570
#        241990
#        266447
#        289400
#        311735
#
# Disc length: 4446 seconds
#
# Revision: 4
# Processed by: cddbd v1.5.2PL0 Copyright (c) Steve Scherf et al.
# Submitted via: ExactAudioCopyFreeDBPlugin 1.0
#
DISCID=fd115c0f
DTITLE=Freddie Jackson - Anthology
DYEAR=1998
DGENRE=SMB
TTITLE0=Mr. Magician
TTITLE1=Rock Me Tonight
TTITLE2=Love is Just a Touch Away
TTITLE3=He'll Never Love You (Like I Do)
TTITLE4=You Are My Lady
TTITLE5=Good Morning Heartache
TTITLE6=A Little Bit More
TTITLE7=Tasty Love
TTITLE8=Have You Ever Loved Somebody
TTITLE9=I Don't Want to Lose Your Love
TTITLE10=Jam Tonight
TTITLE11=You Are My Love
TTITLE12=Look Around
TTITLE13=I Can't Complain
TTITLE14=Don't Let Love Slip Away
EXTD=
EXTT0=
EXTT1=
EXTT2=
EXTT3=
EXTT4=
EXTT5=
EXTT6=
EXTT7=
EXTT8=
EXTT9=
EXTT10=
EXTT11=
EXTT12=
EXTT13=
EXTT14=
PLAYORDER=
